<?xml version="1.0" encoding="UTF-8"?>
<svg width="72px" height="73px" viewBox="0 0 72 73" version="1.1" xmlns="http://www.w3.org/2000/svg" xmlns:xlink="http://www.w3.org/1999/xlink">
    <title>icon_剩余单元</title>
    <g id="4月29日修改" stroke="none" stroke-width="1" fill="none" fill-rule="evenodd">
        <g id="4招商引资-05拆楼" transform="translate(-2322.000000, -204.000000)">
            <g id="统计" transform="translate(2061.000000, 180.000000)">
                <g id="icon_剩余单元" transform="translate(261.000000, 24.500000)">
                    <circle id="椭圆形" stroke="#979797" stroke-width="3" cx="36" cy="36" r="34.5"></circle>
                    <path d="M35.9890997,47.7896053 C38.1182663,47.7896053 39.844297,49.515636 39.844297,51.6448027 C39.844297,53.7739694 38.1182663,55.5 35.9890997,55.5 C33.859933,55.5 32.1339023,53.7739694 32.1339023,51.6448027 C32.1339023,49.515636 33.859933,47.7896053 35.9890997,47.7896053 Z M37.4885438,16.5 C44.3028851,16.5 48.8265093,21.5872707 48.8337971,26.3782657 C48.8409618,29.4205114 48.2122792,31.5883824 46.5213398,34.0669817 L46.5213398,34.0669817 C43.3743137,38.8579767 39.266198,39.5625347 39.266198,45.3724291 L39.266198,45.3724291 L32.7409062,45.3724291 L32.7409062,43.4719288 C32.6180602,39.7973874 34.3270652,36.823791 37.6764259,34.5475264 C41.1450196,32.0147304 42.3012175,31.2921067 42.3012175,27.7548638 C42.3012175,23.9105058 38.5435744,22.8590884 35.9421291,22.8590884 C31.5955477,22.8590884 29.561362,26.1976098 29.561362,29.348249 L29.561362,29.348249 L23.1661425,29.3265703 C23.1661425,20.0986659 30.2261758,16.5 37.4885438,16.5 Z" id="形状结合" fill="#FFFFFF"></path>
                </g>
            </g>
        </g>
    </g>
</svg>