<?xml version="1.0" encoding="UTF-8"?>
<svg width="72px" height="73px" viewBox="0 0 72 73" version="1.1" xmlns="http://www.w3.org/2000/svg" xmlns:xlink="http://www.w3.org/1999/xlink">
    <title>icon_已入驻单元</title>
    <g id="4月29日修改" stroke="none" stroke-width="1" fill="none" fill-rule="evenodd">
        <g id="4招商引资-05拆楼" transform="translate(-2092.000000, -204.000000)">
            <g id="统计" transform="translate(2061.000000, 180.000000)">
                <g id="icon_已入驻单元" transform="translate(31.000000, 24.500000)">
                    <circle id="椭圆形" stroke="#979797" stroke-width="3" cx="36" cy="36" r="34.5"></circle>
                    <g id="企业" transform="translate(19.500000, 16.000000)" fill="#FFFFFF" fill-rule="nonzero">
                        <path d="M4.18187836,7.56179942 L19.2940804,0.325961632 C19.7797544,-0.0330147569 20.4484359,-0.0330147569 20.9341098,0.325961632 C21.4760938,0.684938021 21.842109,1.04391441 21.842109,1.77594468 L21.842109,37.91994 C21.842109,38.6378928 21.842109,38.8138616 21.6591014,39.1798767 C21.4760938,39.3628843 21.300125,39.7218606 21.1171174,39.7218606 C20.7511023,39.9048682 20.3850872,39.9048682 19.6530568,39.9048682 L2.01394248,39.9048682 C1.28895093,39.9048682 1.1059434,39.9048682 0.746967014,39.7218606 C0.563959433,39.5388531 0.204983044,39.3628843 0.204983044,39.1798767 C0.021975463,38.8209003 0.021975463,38.6378927 0.021975463,37.9269787 L0.021975463,15.1425361 C0.021975463,13.1505691 0.204983044,12.6085851 0.380951852,11.7146635 C0.563959433,10.9967108 0.929974537,10.2646805 1.47195856,9.72269653 C2.00690376,9.18071256 2.5559265,8.64576736 4.18187836,7.56179942 Z M7.27892957,18.2255098 C7.27892957,19.3094778 8.01095984,20.0344693 8.7429901,20.0344693 L13.1140556,20.0344693 C13.8390471,20.0344693 14.5781161,19.3165165 14.5781161,18.2255098 C14.5781161,17.1415419 13.8460859,16.4165503 13.1140556,16.4165503 L8.7429901,16.4165503 C8.01095984,16.4165503 7.27892957,17.1345031 7.27892957,18.2255098 Z M7.46897587,23.6523882 C7.28596829,24.2436434 7.28596829,24.8771312 7.46897587,25.4613476 C7.65902216,25.9962928 8.16581238,26.3552692 8.73595139,26.362308 L13.1070168,26.362308 C13.8320084,26.362308 14.5710774,25.6443552 14.5710774,24.5533485 C14.5710774,23.4764193 13.8390471,22.7443891 13.1070168,22.7443891 L8.73595139,22.7443891 L8.73595139,22.7584666 C8.19396742,22.7584666 7.83499103,23.1174429 7.46897587,23.6523882 L7.46897587,23.6523882 Z M7.27892957,30.8811872 C7.27892957,31.9721939 8.01095984,32.6901467 8.7429901,32.6901467 L13.1140556,32.6901467 C13.8390471,32.6901467 14.5781161,31.9721939 14.5781161,30.8811872 C14.5781161,29.7901805 13.8460859,29.0722278 13.1140556,29.0722278 L8.7429901,29.0722278 C8.01095984,29.0722278 7.27892957,29.7901806 7.27892957,30.8811872 Z" id="形状"></path>
                        <path d="M28.0291726,9.72269653 C27.5786925,9.32852639 26.9592822,9.19479005 26.3891432,9.36372014 C25.8471593,9.54672772 25.4811441,10.0887117 25.4811441,10.8137032 L25.4811441,37.9269787 C25.4811441,38.6449315 25.4811441,38.8279391 25.6641517,39.1869155 C25.8471593,39.5458918 26.0231281,39.5458918 26.2061356,39.7288994 C26.3891432,39.911907 26.7481196,39.911907 27.2901036,39.911907 L30.9361775,39.911907 C31.6682078,39.911907 31.8441766,39.911907 32.0271841,39.7288994 L32.5691681,39.1869155 C32.7521757,39.0109466 32.7521757,38.6449315 32.7521757,37.9269787 L32.7521757,18.5844862 C32.7521757,16.9514956 32.7521757,16.4165504 32.5691681,15.8745664 C32.3861605,15.3396212 32.2101917,14.7976372 31.8441766,14.2415758 C31.4852002,13.6995918 31.3021926,13.3406154 30.2041472,12.0736399 L28.0291726,9.72269653 L28.0291726,9.72269653 Z" id="路径" opacity="0.680000007"></path>
                    </g>
                    <g id="区块-开发单元_地质对象jurassic" transform="translate(20.000000, 51.000000)" fill="#CE6043" fill-rule="nonzero">
                        <polygon id="路径" points="0.260714286 0.760714286 0.5 1 0 1"></polygon>
                    </g>
                </g>
            </g>
        </g>
    </g>
</svg>